<svg width="18" height="12" viewBox="0 0 18 12" fill="none" xmlns="http://www.w3.org/2000/svg">
<g clip-path="url(#clip0_217_138)">
<path d="M10.8949 11.176C10.75 11.0316 10.668 10.8358 10.6669 10.6312C10.6658 10.4267 10.7456 10.23 10.8889 10.084L14.4889 6.46999L0.765877 6.46999C0.561262 6.46999 0.365028 6.38871 0.220345 6.24403C0.0756607 6.09934 -0.00562286 5.90311 -0.00562286 5.69849C-0.00562286 5.49388 0.0756607 5.29765 0.220345 5.15296C0.365028 5.00828 0.561262 4.92699 0.765877 4.92699L14.4909 4.92699L10.8829 1.31299C10.741 1.16628 10.6622 0.969863 10.6633 0.765772C10.6644 0.561681 10.7454 0.366138 10.8889 0.220995C11.0337 0.077795 11.2295 -0.00201988 11.4331 -0.000894547C11.6368 0.000230789 11.8317 0.0822029 11.9749 0.226994L16.8659 5.15299C16.9325 5.22439 16.9866 5.30655 17.0259 5.39599C17.0663 5.49076 17.0864 5.59297 17.0849 5.69599C17.0848 5.89781 17.0059 6.09161 16.8649 6.23599L11.9749 11.161C11.9055 11.2338 11.8223 11.2921 11.7301 11.3323C11.6379 11.3726 11.5386 11.394 11.438 11.3954C11.3374 11.3968 11.2376 11.3781 11.1443 11.3405C11.0511 11.3028 10.9663 11.2469 10.8949 11.176Z" fill="white"/>
</g>
<defs>
<clipPath id="clip0_217_138">
<rect width="17.084" height="11.395" fill="white"/>
</clipPath>
</defs>
</svg>
