<svg width="24" height="48" viewBox="0 0 24 48" fill="none" xmlns="http://www.w3.org/2000/svg">
<g clip-path="url(#clip0_217_140)">
<path d="M11.8073 9.43272L2.87729 0.495722C2.56022 0.179584 2.13056 0.0023477 1.68281 0.00300407C1.23507 0.00366045 0.805927 0.182155 0.489789 0.499222C0.173651 0.816288 -0.00358425 1.24595 -0.00292787 1.6937C-0.00227149 2.14144 0.176223 2.57058 0.493289 2.88672L10.6073 13.0117C10.9144 13.3176 11.3276 13.4934 11.761 13.5026C12.1943 13.5117 12.6146 13.3534 12.9343 13.0607L23.1273 2.89372C23.4444 2.57758 23.6229 2.14844 23.6235 1.7007C23.6242 1.25295 23.4469 0.823288 23.1308 0.506222C22.8147 0.189155 22.3855 0.0106604 21.9378 0.010004C21.49 0.00934766 21.0604 0.186584 20.7433 0.502722L11.8073 9.43272Z" fill="white"/>
<path opacity="0.434" d="M11.8073 26.4327L2.87729 17.4957C2.56022 17.1796 2.13056 17.0023 1.68281 17.003C1.23507 17.0037 0.805927 17.1822 0.489789 17.4992C0.173651 17.8163 -0.00358425 18.246 -0.00292787 18.6937C-0.00227149 19.1414 0.176223 19.5706 0.493289 19.8867L10.6073 30.0117C10.9144 30.3176 11.3276 30.4934 11.761 30.5026C12.1943 30.5117 12.6146 30.3534 12.9343 30.0607L23.1273 19.8937C23.4444 19.5776 23.6229 19.1484 23.6235 18.7007C23.6242 18.253 23.4469 17.8233 23.1308 17.5062C22.8147 17.1892 22.3855 17.0107 21.9378 17.01C21.49 17.0093 21.0604 17.1866 20.7433 17.5027L11.8073 26.4327Z" fill="white"/>
<path opacity="0.143" d="M11.8073 43.4327L2.87729 34.4957C2.56022 34.1796 2.13056 34.0023 1.68281 34.003C1.23507 34.0037 0.805927 34.1822 0.489789 34.4992C0.173651 34.8163 -0.00358425 35.246 -0.00292787 35.6937C-0.00227149 36.1414 0.176223 36.5706 0.493289 36.8867L10.6073 47.0117C10.9144 47.3176 11.3276 47.4934 11.761 47.5026C12.1943 47.5117 12.6146 47.3534 12.9343 47.0607L23.1273 36.8937C23.4444 36.5776 23.6229 36.1484 23.6235 35.7007C23.6242 35.253 23.4469 34.8233 23.1308 34.5062C22.8147 34.1892 22.3855 34.0107 21.9378 34.01C21.49 34.0093 21.0604 34.1866 20.7433 34.5027L11.8073 43.4327Z" fill="white"/>
</g>
<defs>
<clipPath id="clip0_217_140">
<rect width="23.619" height="47.503" fill="white"/>
</clipPath>
</defs>
</svg>
