<svg width="70" height="50" viewBox="0 0 70 50" fill="none" xmlns="http://www.w3.org/2000/svg">
<path d="M49.2088 21.6959C54.4737 21.6959 58.7418 17.4278 58.7418 12.1629C58.7418 6.89795 54.4737 2.62988 49.2088 2.62988C43.9439 2.62988 39.6758 6.89795 39.6758 12.1629C39.6758 17.4278 43.9439 21.6959 49.2088 21.6959Z" stroke="white" stroke-width="4"/>
<path d="M20.8445 21.6978C26.1095 21.6978 30.3775 17.4298 30.3775 12.1648C30.3775 6.89991 26.1095 2.63184 20.8445 2.63184C15.5796 2.63184 11.3115 6.89991 11.3115 12.1648C11.3115 17.4298 15.5796 21.6978 20.8445 21.6978Z" stroke="white" stroke-width="4"/>
<path d="M67.378 49.7422C67.378 49.7422 67.461 21.791 48.962 21.791C32.9894 21.791 31.2441 37.8583 31.0653 42.2469C31.0358 42.9707 31.2535 43.6657 31.6427 44.2768L31.8164 44.5494C33.3963 47.0298 37.0228 47.0145 38.5818 44.5209L38.7069 44.3209C39.1044 43.685 39.3166 42.9517 39.3128 42.2018C39.2672 33.0718 38.3446 21.7959 20.5964 21.7959C2.09738 21.7959 2.80732 49.1121 2.80732 49.1121" stroke="white" stroke-width="4"/>
</svg>
