<svg width="70" height="44" viewBox="0 0 70 44" fill="none" xmlns="http://www.w3.org/2000/svg">
<path d="M49.1424 21.8228C54.4073 21.8228 58.6754 17.5548 58.6754 12.2898C58.6754 7.02491 54.4073 2.75684 49.1424 2.75684C43.8774 2.75684 39.6094 7.02491 39.6094 12.2898C39.6094 17.5548 43.8774 21.8228 49.1424 21.8228Z" stroke="white" stroke-width="4"/>
<path d="M30.9816 43.47C30.9816 43.47 30.3966 21.918 48.8956 21.918C67.3946 21.918 67.6144 43.47 67.6144 43.47" stroke="white" stroke-width="4"/>
<path d="M20.7801 21.8238C26.045 21.8238 30.3131 17.5557 30.3131 12.2908C30.3131 7.02588 26.045 2.75781 20.7801 2.75781C15.5151 2.75781 11.2471 7.02588 11.2471 12.2908C11.2471 17.5557 15.5151 21.8238 20.7801 21.8238Z" stroke="white" stroke-width="4"/>
<path d="M2.61828 43.4729C2.61828 43.4729 2.03334 21.9209 20.5323 21.9209C39.0313 21.9209 39.2511 43.4729 39.2511 43.4729" stroke="white" stroke-width="4"/>
</svg>
