<svg width="70" height="44" viewBox="0 0 70 44" fill="none" xmlns="http://www.w3.org/2000/svg">
<g opacity="0.251">
<path d="M48.784 21.981C54.0489 21.981 58.317 17.713 58.317 12.448C58.317 7.18311 54.0489 2.91504 48.784 2.91504C43.519 2.91504 39.251 7.18311 39.251 12.448C39.251 17.713 43.519 21.981 48.784 21.981Z" stroke="white" stroke-width="4"/>
<path d="M30.6232 43.6282C30.6232 43.6282 30.0382 22.0762 48.5372 22.0762C67.0362 22.0762 67.256 43.6282 67.256 43.6282" stroke="white" stroke-width="4"/>
</g>
<path d="M20.4217 21.982C25.6866 21.982 29.9547 17.7139 29.9547 12.449C29.9547 7.18408 25.6866 2.91602 20.4217 2.91602C15.1567 2.91602 10.8887 7.18408 10.8887 12.449C10.8887 17.7139 15.1567 21.982 20.4217 21.982Z" stroke="white" stroke-width="4"/>
<path d="M2.25988 43.6311C2.25988 43.6311 1.67494 22.0791 20.1739 22.0791C38.6729 22.0791 38.8927 43.6311 38.8927 43.6311" stroke="white" stroke-width="4"/>
</svg>
